<svg width="87" height="101" viewBox="0 0 159.23 183.2" fill="none" xmlns="http://www.w3.org/2000/svg">
<path d="M86.8456 75.1804V25.1597L43.5481 0.17L0.22998 25.1597V75.1804L43.5481 100.17L86.8456 75.1804Z" fill="#3DABE2"/>
<path d="M86.763 75.1803L43.5482 100.17L0.333496 75.1803L43.5482 50.4803L86.763 75.1803Z" fill="white"/>
<path d="M27.1229 72.429L32.3153 41.8953H16.8829L34.384 25.9871H53.0021L70.2135 41.8953H55.0708L60.1804 72.4497L59.1668 72.6359L53.933 41.8953H33.2462L28.1779 72.6152L27.1229 72.429ZM54.8018 40.8403H67.4829L52.4435 27.0422L54.8018 40.8403ZM33.5151 40.8403H53.7675L51.4506 27.0422H35.832L33.5151 40.8403ZM19.5515 40.8403H32.4601L34.8184 26.8973L19.5515 40.8403Z" fill="#3DABE2"/>
<path d="M53.2917 24.9528H33.8874L14.235 42.9089H31.0534L25.923 73.2772L28.9847 73.7943L34.1977 42.9089H53.0021L58.1738 73.7943L61.2768 73.2772L56.2085 42.9089H72.8614L53.2917 24.9528ZM34.6735 39.8059L36.7422 28.0765H50.6024L52.6711 39.8059H34.6735ZM22.158 39.8059L33.2255 29.6901L31.5912 39.8266L22.158 39.8059ZM55.6913 39.8266L54.0157 29.8556L64.897 39.8266H55.6913Z" fill="#1D1E1B"/>
<path d="M17.5448 43.964C17.0334 43.964 16.5335 43.8123 16.1082 43.5282C15.683 43.244 15.3515 42.8402 15.1558 42.3677C14.9601 41.8952 14.9089 41.3752 15.0087 40.8736C15.1084 40.372 15.3547 39.9113 15.7164 39.5496C16.078 39.188 16.5388 38.9417 17.0404 38.8419C17.542 38.7422 18.0619 38.7934 18.5344 38.9891C19.0069 39.1848 19.4108 39.5162 19.6949 39.9415C19.979 40.3667 20.1307 40.8667 20.1307 41.3781C20.1253 42.0622 19.8511 42.7168 19.3673 43.2006C18.8836 43.6844 18.229 43.9585 17.5448 43.964V43.964Z" fill="#3DABE2"/>
<path d="M17.5447 39.8266C17.8565 39.8266 18.1613 39.9194 18.4203 40.0931C18.6792 40.2668 18.8807 40.5135 18.9991 40.802C19.1174 41.0905 19.1473 41.4077 19.085 41.7132C19.0226 42.0187 18.8708 42.2988 18.6489 42.5178C18.4269 42.7369 18.1449 42.885 17.8385 42.9433C17.5322 43.0016 17.2155 42.9675 16.9286 42.8453C16.6417 42.7231 16.3976 42.5184 16.2273 42.2571C16.0571 41.9959 15.9684 41.6899 15.9725 41.3781C15.9779 40.9647 16.146 40.5701 16.4402 40.2797C16.7345 39.9894 17.1313 39.8266 17.5447 39.8266V39.8266ZM17.5447 37.7579C16.8228 37.7538 16.1161 37.9644 15.5142 38.3629C14.9123 38.7614 14.4424 39.3298 14.1643 39.9959C13.8862 40.662 13.8123 41.3958 13.9521 42.104C14.092 42.8122 14.4391 43.4628 14.9496 43.9732C15.46 44.4837 16.1106 44.8308 16.8188 44.9707C17.527 45.1105 18.2608 45.0366 18.9269 44.7585C19.593 44.4804 20.1614 44.0105 20.5599 43.4086C20.9584 42.8067 21.169 42.1 21.1649 41.3781C21.1594 40.4197 20.7763 39.502 20.0985 38.8242C19.4208 38.1465 18.5031 37.7633 17.5447 37.7579Z" fill="#1D1E1B"/>
<path d="M69.5514 43.964C69.04 43.964 68.5401 43.8123 68.1148 43.5282C67.6896 43.244 67.3581 42.8402 67.1624 42.3677C66.9667 41.8952 66.9155 41.3752 67.0153 40.8736C67.115 40.372 67.3613 39.9113 67.723 39.5496C68.0846 39.188 68.5454 38.9417 69.047 38.8419C69.5486 38.7422 70.0685 38.7934 70.541 38.9891C71.0135 39.1848 71.4173 39.5162 71.7015 39.9415C71.9856 40.3667 72.1373 40.8667 72.1373 41.3781C72.1373 42.0639 71.8648 42.7216 71.3799 43.2066C70.895 43.6915 70.2372 43.964 69.5514 43.964Z" fill="#3DABE2"/>
<path d="M69.5514 39.8266C69.8641 39.8225 70.1709 39.9118 70.4326 40.0829C70.6943 40.2541 70.899 40.4994 71.0205 40.7875C71.1421 41.0756 71.1749 41.3935 71.1149 41.7003C71.0549 42.0072 70.9048 42.2893 70.6837 42.5104C70.4625 42.7315 70.1805 42.8816 69.8736 42.9416C69.5667 43.0016 69.2489 42.9688 68.9608 42.8472C68.6727 42.7257 68.4274 42.521 68.2562 42.2593C68.085 41.9976 67.9958 41.6908 67.9999 41.3781C68.0052 40.9683 68.1704 40.5768 68.4602 40.287C68.7501 39.9971 69.1416 39.832 69.5514 39.8266ZM69.5514 37.7579C68.8296 37.7538 68.1228 37.9644 67.5209 38.3629C66.919 38.7614 66.4491 39.3298 66.171 39.9959C65.8929 40.662 65.819 41.3958 65.9589 42.104C66.0987 42.8122 66.4459 43.4628 66.9563 43.9732C67.4667 44.4837 68.1173 44.8308 68.8255 44.9707C69.5337 45.1105 70.2675 45.0366 70.9336 44.7585C71.5997 44.4804 72.1681 44.0105 72.5666 43.4086C72.9651 42.8067 73.1757 42.1 73.1716 41.3781C73.1716 40.418 72.7902 39.4972 72.1113 38.8182C71.4323 38.1393 70.5115 37.7579 69.5514 37.7579V37.7579Z" fill="#1D1E1B"/>
<path d="M43.548 44.0053C44.9761 44.0053 46.1339 42.8476 46.1339 41.4195C46.1339 39.9914 44.9761 38.8336 43.548 38.8336C42.1199 38.8336 40.9622 39.9914 40.9622 41.4195C40.9622 42.8476 42.1199 44.0053 43.548 44.0053Z" fill="#3DABE2"/>
<path d="M43.5482 39.8266C43.8609 39.8225 44.1677 39.9118 44.4294 40.0829C44.6911 40.2541 44.8958 40.4994 45.0173 40.7875C45.1389 41.0756 45.1718 41.3935 45.1118 41.7003C45.0518 42.0072 44.9016 42.2893 44.6805 42.5104C44.4594 42.7315 44.1774 42.8816 43.8705 42.9416C43.5636 43.0016 43.2458 42.9688 42.9576 42.8472C42.6695 42.7257 42.4242 42.521 42.253 42.2593C42.0819 41.9976 41.9926 41.6908 41.9967 41.3781C42.0021 40.9683 42.1673 40.5768 42.4571 40.287C42.7469 39.9971 43.1384 39.832 43.5482 39.8266V39.8266ZM43.5482 37.7579C42.8264 37.7538 42.1196 37.9644 41.5177 38.3629C40.9158 38.7614 40.446 39.3298 40.1678 39.9959C39.8897 40.662 39.8159 41.3958 39.9557 42.104C40.0955 42.8122 40.4427 43.4628 40.9531 43.9732C41.4635 44.4837 42.1142 44.8308 42.8224 44.9707C43.5305 45.1105 44.2643 45.0366 44.9304 44.7585C45.5965 44.4804 46.165 44.0105 46.5634 43.4086C46.9619 42.8067 47.1725 42.1 47.1684 41.3781C47.1684 40.418 46.787 39.4972 46.1081 38.8182C45.4292 38.1393 44.5084 37.7579 43.5482 37.7579V37.7579Z" fill="#1D1E1B"/>
<path d="M27.4539 76.1319C26.9425 76.1319 26.4425 75.9803 26.0173 75.6961C25.592 75.412 25.2606 75.0082 25.0649 74.5357C24.8692 74.0632 24.818 73.5432 24.9177 73.0416C25.0175 72.54 25.2638 72.0793 25.6254 71.7176C25.9871 71.356 26.4478 71.1097 26.9494 71.0099C27.451 70.9101 27.971 70.9614 28.4435 71.1571C28.916 71.3528 29.3198 71.6842 29.6039 72.1095C29.8881 72.5347 30.0397 73.0347 30.0397 73.5461C30.0397 74.2319 29.7673 74.8896 29.2824 75.3746C28.7974 75.8595 28.1397 76.1319 27.4539 76.1319V76.1319Z" fill="#1D1E1B"/>
<path d="M27.4539 71.9946C27.7608 71.9946 28.0608 72.0856 28.3159 72.2561C28.571 72.4265 28.7699 72.6689 28.8873 72.9524C29.0048 73.2359 29.0355 73.5478 28.9756 73.8488C28.9158 74.1497 28.768 74.4262 28.551 74.6432C28.334 74.8602 28.0576 75.0079 27.7566 75.0678C27.4557 75.1276 27.1437 75.0969 26.8602 74.9795C26.5767 74.8621 26.3344 74.6632 26.1639 74.4081C25.9934 74.1529 25.9024 73.8529 25.9024 73.5461C25.9024 73.1346 26.0659 72.74 26.3568 72.449C26.6478 72.158 27.0424 71.9946 27.4539 71.9946V71.9946ZM27.4539 69.9259C26.7379 69.9259 26.038 70.1382 25.4427 70.536C24.8473 70.9338 24.3833 71.4992 24.1093 72.1607C23.8353 72.8222 23.7636 73.5501 23.9033 74.2523C24.043 74.9546 24.3878 75.5997 24.8941 76.106C25.4004 76.6122 26.0454 76.957 26.7477 77.0967C27.4499 77.2364 28.1778 77.1647 28.8393 76.8907C29.5008 76.6167 30.0662 76.1527 30.464 75.5574C30.8618 74.962 31.0741 74.2621 31.0741 73.5461C31.0741 72.586 30.6927 71.6651 30.0138 70.9862C29.3349 70.3073 28.4141 69.9259 27.4539 69.9259V69.9259Z" fill="#1D1E1B"/>
<path d="M59.7666 76.1319C59.2552 76.1319 58.7553 75.9803 58.33 75.6961C57.9048 75.412 57.5733 75.0082 57.3776 74.5357C57.1819 74.0632 57.1307 73.5432 57.2305 73.0416C57.3302 72.54 57.5765 72.0793 57.9382 71.7176C58.2998 71.356 58.7606 71.1097 59.2622 71.0099C59.7638 70.9101 60.2837 70.9614 60.7562 71.1571C61.2287 71.3528 61.6326 71.6842 61.9167 72.1095C62.2008 72.5347 62.3525 73.0347 62.3525 73.5461C62.3525 74.2319 62.0801 74.8896 61.5951 75.3746C61.1102 75.8595 60.4524 76.1319 59.7666 76.1319V76.1319Z" fill="#1D1E1B"/>
<path d="M59.7667 71.9946C60.1782 71.9946 60.5728 72.158 60.8638 72.449C61.1547 72.74 61.3182 73.1346 61.3182 73.5461C61.3182 73.9576 61.1547 74.3522 60.8638 74.6432C60.5728 74.9341 60.1782 75.0976 59.7667 75.0976C59.3552 75.0976 58.9605 74.9341 58.6696 74.6432C58.3786 74.3522 58.2152 73.9576 58.2152 73.5461C58.2152 73.1346 58.3786 72.74 58.6696 72.449C58.9605 72.158 59.3552 71.9946 59.7667 71.9946ZM59.7667 69.9259C59.049 69.9177 58.345 70.123 57.7442 70.5158C57.1435 70.9086 56.6731 71.4711 56.3927 72.1318C56.1123 72.7925 56.0347 73.5217 56.1697 74.2266C56.3047 74.9316 56.6462 75.5805 57.1508 76.091C57.6554 76.6014 58.3003 76.9503 59.0037 77.0934C59.707 77.2365 60.437 77.1672 61.101 76.8945C61.7649 76.6217 62.3327 76.1578 62.7324 75.5616C63.132 74.9654 63.3454 74.2638 63.3455 73.5461C63.3455 72.586 62.9641 71.6651 62.2852 70.9862C61.6062 70.3073 60.6854 69.9259 59.7253 69.9259H59.7667Z" fill="#1D1E1B"/>
</svg>
